<svg xmlns="http://www.w3.org/2000/svg" viewBox="0 0 16 16" width="16" height="16" shape-rendering="crispEdges" role="img" aria-label="SCARECROW">
<rect x="6" y="1" width="4" height="1" fill="#ff9e64"/>
<rect x="5" y="2" width="6" height="1" fill="#ff9e64"/>
<rect x="2" y="3" width="12" height="1" fill="#ff9e64"/>
<rect x="2" y="4" width="12" height="1" fill="#ff9e64"/>
<rect x="4" y="5" width="8" height="1" fill="#e0af68"/>
<rect x="4" y="6" width="1" height="1" fill="#e0af68"/>
<rect x="5" y="6" width="1" height="1" fill="#f7768e"/>
<rect x="7" y="6" width="2" height="1" fill="#e0af68"/>
<rect x="10" y="6" width="1" height="1" fill="#f7768e"/>
<rect x="11" y="6" width="1" height="1" fill="#e0af68"/>
<rect x="4" y="7" width="1" height="1" fill="#e0af68"/>
<rect x="6" y="7" width="1" height="1" fill="#f7768e"/>
<rect x="9" y="7" width="1" height="1" fill="#f7768e"/>
<rect x="11" y="7" width="1" height="1" fill="#e0af68"/>
<rect x="4" y="8" width="1" height="1" fill="#e0af68"/>
<rect x="5" y="8" width="1" height="1" fill="#f7768e"/>
<rect x="7" y="8" width="2" height="1" fill="#e0af68"/>
<rect x="10" y="8" width="1" height="1" fill="#f7768e"/>
<rect x="11" y="8" width="1" height="1" fill="#e0af68"/>
<rect x="4" y="9" width="3" height="1" fill="#e0af68"/>
<rect x="9" y="9" width="3" height="1" fill="#e0af68"/>
<rect x="4" y="10" width="8" height="1" fill="#e0af68"/>
<rect x="5" y="11" width="6" height="1" fill="#e0af68"/>
<rect x="7" y="12" width="2" height="1" fill="#ff9e64"/>
<rect x="6" y="13" width="4" height="1" fill="#ff9e64"/>
<rect x="5" y="14" width="2" height="1" fill="#ff9e64"/>
<rect x="9" y="14" width="2" height="1" fill="#ff9e64"/>
<rect x="4" y="15" width="2" height="1" fill="#ff9e64"/>
<rect x="10" y="15" width="2" height="1" fill="#ff9e64"/>
</svg>
